<?xml version="1.0" encoding="utf-8"?>
<!-- Generator: Adobe Illustrator 26.5.0, SVG Export Plug-In . SVG Version: 6.00 Build 0)  -->
<svg version="1.1" id="Layer_1" xmlns="http://www.w3.org/2000/svg" xmlns:xlink="http://www.w3.org/1999/xlink" x="0px" y="0px"
	 viewBox="0 0 175 45" style="enable-background:new 0 0 175 45;" xml:space="preserve">
<style type="text/css">
	.st0{fill:url(#SVGID_1_);}
	.st1{fill:url(#SVGID_00000042733449038326518410000009632709035482447251_);}
	.st2{fill:url(#SVGID_00000007424496084592869270000010464586314130899330_);}
	.st3{fill:url(#SVGID_00000147940425736022570340000010848800424912792504_);}
	.st4{fill:url(#SVGID_00000152248110453572565820000001256855500979379592_);}
	.st5{fill:url(#SVGID_00000098904501438746699340000007794343749456921223_);}
	.st6{fill:url(#SVGID_00000163764557371462561540000000993037642574944418_);}
</style>
<g>
	
		<linearGradient id="SVGID_1_" gradientUnits="userSpaceOnUse" x1="38.95" y1="3.3566" x2="38.95" y2="53.6177" gradientTransform="matrix(1 0 0 -1 0 45.8898)">
		<stop  offset="0" style="stop-color:#879AF2"/>
		<stop  offset="0.5" style="stop-color:#D3208B"/>
		<stop  offset="0.6584" style="stop-color:#E35255"/>
		<stop  offset="0.813" style="stop-color:#F17C27"/>
		<stop  offset="0.9316" style="stop-color:#FA960B"/>
		<stop  offset="1" style="stop-color:#FDA000"/>
	</linearGradient>
	<path class="st0" d="M30.3,23.9h4.3c0.2,1.2,0.6,2.1,1.4,2.6c0.8,0.6,2,0.9,3.4,0.9c1.3,0,2.3-0.2,2.9-0.7c0.7-0.5,1-1.1,1-2
		c0-1.3-1.9-2.4-5.6-3.2l-0.1-0.1l-0.5-0.1c-2.1-0.5-3.5-0.9-4.2-1.4c-0.8-0.5-1.4-1.1-1.7-2c-0.4-0.7-0.6-1.7-0.6-2.9
		c0-2,0.7-3.6,2.1-4.8c1.4-1.1,3.5-1.7,6.1-1.7c2.5,0,4.5,0.6,5.8,1.7c1.4,1.3,2.1,3,2.2,5h-2.5c-1,0-1.6-0.4-2-1.3
		c-0.2-0.4-0.5-0.8-0.9-1.1c-0.7-0.5-1.8-0.8-3-0.8s-2.1,0.2-2.7,0.7c-0.6,0.5-0.9,1.1-0.9,1.9c0,1.1,1.2,1.9,3.6,2.5
		c0.7,0.2,1.2,0.3,1.6,0.4c0.7,0.2,1.4,0.4,2,0.6c0.6,0.1,1,0.3,1.3,0.3c0.6,0.2,1.2,0.5,1.7,0.7c0.8,0.5,1.5,1.1,1.9,1.9
		c0.5,0.9,0.7,1.8,0.7,2.9c0,2.2-0.7,4-2.2,5.2c-1.5,1.2-3.6,1.7-6.3,1.7c-2.8,0-4.9-0.6-6.3-1.8C31.3,28,30.4,26.4,30.3,23.9z"/>
	
		<linearGradient id="SVGID_00000101824359027153777230000004738665811298026158_" gradientUnits="userSpaceOnUse" x1="62.2" y1="3.4371" x2="62.2" y2="53.7999" gradientTransform="matrix(1 0 0 -1 0 45.8898)">
		<stop  offset="0" style="stop-color:#879AF2"/>
		<stop  offset="0.4865" style="stop-color:#D3208B"/>
		<stop  offset="0.7152" style="stop-color:#E5574F"/>
		<stop  offset="1" style="stop-color:#FDA000"/>
	</linearGradient>
	<path style="fill:url(#SVGID_00000101824359027153777230000004738665811298026158_);" d="M68.9,30.6h-4.3l-2.5-11.8l-2.5,11.8h-4.3
		l-4.5-16.5H55l2.6,11.4L60,14.1h4.4l2.2,11.4l2.3-9.9c0.2-1,0.9-1.5,2-1.5h2.7L68.9,30.6z"/>
	
		<linearGradient id="SVGID_00000061473959674319911640000013817564371750404779_" gradientUnits="userSpaceOnUse" x1="83.8" y1="3.5884" x2="83.8" y2="54.0555" gradientTransform="matrix(1 0 0 -1 0 45.8898)">
		<stop  offset="0" style="stop-color:#879AF2"/>
		<stop  offset="0.4842" style="stop-color:#D3208B"/>
		<stop  offset="1" style="stop-color:#FDA000"/>
	</linearGradient>
	<path style="fill:url(#SVGID_00000061473959674319911640000013817564371750404779_);" d="M88,25.4h3.1c-0.5,1.7-1.3,3.1-2.6,4
		c-1.3,1-2.9,1.4-4.8,1.4c-2.4,0-4.2-0.8-5.5-2.3s-2-3.6-2-6.4c0-2.6,0.6-4.7,1.9-6.2s3.2-2.3,5.5-2.3c2.5,0,4.4,0.7,5.8,2.2
		c1.3,1.5,2,3.7,2,6.4c0,0.2,0,0.3,0,0.4s0,0.2,0,0.2c0,0.2,0,0.4-0.1,0.4H80.6c0,1.3,0.4,2.2,0.9,2.9c0.5,0.7,1.3,1,2.4,1
		c0.7,0,1.3-0.1,1.8-0.4c0.1,0,0.2-0.1,0.3-0.2c0.1-0.1,0.2-0.2,0.3-0.3c0-0.1,0.2-0.3,0.5-0.5C87.1,25.6,87.5,25.4,88,25.4z
		 M80.6,20.6h6.3c-0.1-1.1-0.4-1.9-0.9-2.5s-1.3-0.9-2.3-0.9c-0.9,0-1.7,0.3-2.2,0.9C80.9,18.8,80.6,19.5,80.6,20.6z"/>
	
		<linearGradient id="SVGID_00000008843486544883259080000015346625463881915308_" gradientUnits="userSpaceOnUse" x1="101.4" y1="3.6082" x2="101.4" y2="54.0127" gradientTransform="matrix(1 0 0 -1 0 45.8898)">
		<stop  offset="0" style="stop-color:#879AF2"/>
		<stop  offset="0.486" style="stop-color:#D3208B"/>
		<stop  offset="1" style="stop-color:#FDA000"/>
	</linearGradient>
	<path style="fill:url(#SVGID_00000008843486544883259080000015346625463881915308_);" d="M105.6,25.4h3.1c-0.5,1.7-1.3,3.1-2.6,4
		c-1.3,1-2.9,1.4-4.8,1.4c-2.4,0-4.2-0.8-5.5-2.3s-2-3.6-2-6.4c0-2.6,0.6-4.7,1.9-6.2s3.2-2.3,5.5-2.3c2.5,0,4.4,0.7,5.8,2.2
		c1.3,1.5,2,3.7,2,6.4c0,0.2,0,0.3,0,0.4s0,0.2,0,0.2c0,0.2,0,0.4-0.1,0.4H98.2c0,1.3,0.4,2.2,0.9,2.9c0.5,0.7,1.3,1,2.4,1
		c0.7,0,1.3-0.1,1.8-0.4c0.1,0,0.2-0.1,0.3-0.2c0.1-0.1,0.2-0.2,0.3-0.3c0-0.1,0.2-0.3,0.5-0.5C104.7,25.6,105.1,25.4,105.6,25.4z
		 M98.1,20.6h6.3c-0.1-1.1-0.4-1.9-0.9-2.5s-1.3-0.9-2.3-0.9c-0.9,0-1.7,0.3-2.2,0.9C98.5,18.8,98.2,19.5,98.1,20.6z"/>
	
		<linearGradient id="SVGID_00000029009276817489973280000000300850613805855119_" gradientUnits="userSpaceOnUse" x1="115.6" y1="3.3299" x2="115.6" y2="53.9549" gradientTransform="matrix(1 0 0 -1 0 45.8898)">
		<stop  offset="0" style="stop-color:#879AF2"/>
		<stop  offset="0.4889" style="stop-color:#D3208B"/>
		<stop  offset="1" style="stop-color:#FDA000"/>
	</linearGradient>
	<path style="fill:url(#SVGID_00000029009276817489973280000000300850613805855119_);" d="M119,30.6c-1.4,0.1-2.8,0.1-4.4-0.1
		c-1.6-0.1-2.4-1.1-2.4-3V9.2h2.2c0.5,0,1,0.2,1.4,0.6c0.4,0.4,0.6,0.9,0.6,1.5v2.8h2.5V15c0,0.6-0.2,1.1-0.6,1.5
		c-0.4,0.4-0.9,0.6-1.5,0.6h-0.4v9.2c0,0.7,0.4,1.1,1.2,1.1h1.3L119,30.6L119,30.6z"/>
	
		<linearGradient id="SVGID_00000116212951818204670950000014705069634971093636_" gradientUnits="userSpaceOnUse" x1="123.65" y1="3.4037" x2="123.65" y2="53.9256" gradientTransform="matrix(1 0 0 -1 0 45.8898)">
		<stop  offset="0" style="stop-color:#879AF2"/>
		<stop  offset="0.4935" style="stop-color:#D3208B"/>
		<stop  offset="1" style="stop-color:#FDA000"/>
	</linearGradient>
	<path style="fill:url(#SVGID_00000116212951818204670950000014705069634971093636_);" d="M121.5,9.2h2.2c0.6,0,1.1,0.2,1.5,0.6
		c0.4,0.4,0.6,0.9,0.6,1.5v19.3h-4.3V9.2z"/>
	
		<linearGradient id="SVGID_00000119088874820738103530000014167342472880121250_" gradientUnits="userSpaceOnUse" x1="136.7" y1="3.4063" x2="136.7" y2="53.7256" gradientTransform="matrix(1 0 0 -1 0 45.8898)">
		<stop  offset="0" style="stop-color:#879AF2"/>
		<stop  offset="0.4877" style="stop-color:#D3208B"/>
		<stop  offset="1" style="stop-color:#FDA000"/>
	</linearGradient>
	<path style="fill:url(#SVGID_00000119088874820738103530000014167342472880121250_);" d="M131,36.4V33h1.2c0.8,0,1.5-0.2,2-0.6
		s0.6-1,0.3-1.9l-5.8-16.4h4.8l3.3,11.7l2.9-10.2c0.2-1,0.9-1.5,2-1.5h3l-6.4,18.7c-0.5,1.4-1.1,2.3-1.9,2.9c-0.7,0.5-2,0.7-3.7,0.7
		c-0.1,0-0.3,0-0.4,0c-0.2,0-0.3,0-0.4,0c-0.1,0-0.3-0.1-0.5-0.1C131.3,36.4,131.1,36.4,131,36.4z"/>
</g>
</svg>
