<?xml version="1.0" encoding="utf-8"?>
<!-- Generator: Adobe Illustrator 25.4.1, SVG Export Plug-In . SVG Version: 6.00 Build 0)  -->
<svg version="1.1" id="Layer_1" xmlns="http://www.w3.org/2000/svg" xmlns:xlink="http://www.w3.org/1999/xlink" x="0px" y="0px"
	 viewBox="0 0 175 45" style="enable-background:new 0 0 175 45;" xml:space="preserve">
<style type="text/css">
	.st0{fill:url(#SVGID_1_);}
	.st1{fill:url(#SVGID_00000023965590889724882180000010446395349984543879_);}
	.st2{fill:url(#SVGID_00000079451916815258806560000004919801247561399978_);}
	.st3{fill:url(#SVGID_00000031187441352902304830000006063263915110303880_);}
	.st4{fill:url(#SVGID_00000171719497801474762610000000487739318692685749_);}
	.st5{fill:url(#SVGID_00000085935380751676166970000007602617484172155275_);}
	.st6{fill:url(#SVGID_00000067199519201080953720000015562758097322182579_);}
	.st7{fill:url(#SVGID_00000013879727776088216530000016089713150666745255_);}
	.st8{fill:url(#SVGID_00000098220739099811579100000003518514018224333697_);}
</style>
<g>
	<g>
		<linearGradient id="SVGID_1_" gradientUnits="userSpaceOnUse" x1="3.821980e-02" y1="41.8748" x2="31.3297" y2="16.9925">
			<stop  offset="0" style="stop-color:#879AF2"/>
			<stop  offset="0.5" style="stop-color:#D3208B"/>
			<stop  offset="1" style="stop-color:#FDA000"/>
		</linearGradient>
		<path class="st0" d="M38.7,33.9c5.5-8.8,5.2-19-0.6-22.6c-1.4-0.9-3-1.3-4.8-1.3c-3.3,0-7,1.5-10.3,4.3l-0.1,0.1l-0.1-0.1
			c-3.3-2.8-7-4.3-10.3-4.3c-1.8,0-3.4,0.4-4.8,1.3C1.8,14.9,1.5,25.1,7,33.9c2.6,4.1,6.1,7.4,10.1,9.2c0.7,0.2,1.3,0.4,1.9,0.4
			c1.9,0,2.9-1.2,2.9-1.9v-5.5c0-1.2-0.3-2.2-1.9-3.8l-2.5-2.5c-0.2-0.2-0.3-0.4-0.3-0.7c0-0.3,0.1-0.5,0.3-0.7
			c0.2-0.2,0.4-0.3,0.7-0.3c0.3,0,0.5,0.1,0.7,0.3l2.5,2.5c0.7,0.7,1.2,1.3,1.5,1.9c0.4-0.6,0.9-1.2,1.5-1.9l2.5-2.5
			c0.2-0.2,0.4-0.3,0.7-0.3c0.3,0,0.5,0.1,0.7,0.3c0.2,0.2,0.3,0.4,0.3,0.7c0,0.3-0.1,0.5-0.3,0.7l-2.5,2.5
			c-1.6,1.6-1.9,2.6-1.9,3.8v5.5c0,0.6,1,1.9,2.9,1.9c0.6,0,1.2-0.1,1.9-0.4C32.5,41.3,36.1,38,38.7,33.9z"/>
	</g>
	
		<linearGradient id="SVGID_00000060712876986886590810000004257594474863950519_" gradientUnits="userSpaceOnUse" x1="19.0238" y1="12.5575" x2="28.4489" y2="-6.2928">
		<stop  offset="0" style="stop-color:#879AF2"/>
		<stop  offset="0.5" style="stop-color:#D3208B"/>
		<stop  offset="1" style="stop-color:#FDA000"/>
	</linearGradient>
	<path style="fill:url(#SVGID_00000060712876986886590810000004257594474863950519_);" d="M15,7.5c0,0,0.5,0.1,1,0.2
		c0.9,0.2,1.8,0.5,2.8,0.9C19.5,9,20.3,9.3,21,9.8c0.6,0.4,1.3,0.8,1.3,0.8c0.3,0.2,0.8,0.2,1,0c0,0,0.7-0.5,1.3-0.8
		c0.8-0.4,1.5-0.8,2.3-1.1c0.9-0.4,1.8-0.7,2.8-0.9c0.5-0.1,1-0.2,1-0.2c0.3-0.1,0.6-0.4,0.6-0.7V3.1c0-0.3-0.2-0.5-0.6-0.3
		l-3.9,2.1c-0.3,0.2-0.7,0.1-1-0.2l-2.7-3c-0.2-0.3-0.6-0.3-0.8,0l-2.7,3c-0.2,0.3-0.7,0.3-1,0.2l-3.9-2.1c-0.3-0.2-0.6,0-0.6,0.3
		v3.6C14.4,7.1,14.7,7.4,15,7.5z"/>
</g>
<g>
	
		<linearGradient id="SVGID_00000097488690830786215900000004140345901530965393_" gradientUnits="userSpaceOnUse" x1="58.6848" y1="46.3832" x2="58.6848" y2="-3.8779">
		<stop  offset="0" style="stop-color:#879AF2"/>
		<stop  offset="0.5" style="stop-color:#D3208B"/>
		<stop  offset="0.6584" style="stop-color:#E35255"/>
		<stop  offset="0.813" style="stop-color:#F17C27"/>
		<stop  offset="0.9316" style="stop-color:#FA960B"/>
		<stop  offset="1" style="stop-color:#FDA000"/>
	</linearGradient>
	<path style="fill:url(#SVGID_00000097488690830786215900000004140345901530965393_);" d="M50,27.8h4.3c0.2,1.2,0.6,2.1,1.4,2.6
		c0.8,0.6,2,0.9,3.4,0.9c1.3,0,2.3-0.2,2.9-0.7c0.7-0.5,1-1.1,1-2c0-1.3-1.9-2.4-5.6-3.2l-0.1-0.1l-0.5-0.1
		c-2.1-0.5-3.5-0.9-4.2-1.4c-0.8-0.5-1.4-1.1-1.7-2c-0.4-0.7-0.6-1.7-0.6-2.9c0-2,0.7-3.6,2.1-4.8c1.4-1.1,3.5-1.7,6.1-1.7
		c2.5,0,4.5,0.6,5.8,1.7c1.4,1.3,2.1,3,2.2,5h-2.5c-1,0-1.6-0.4-2-1.3c-0.2-0.4-0.5-0.8-0.9-1.1c-0.7-0.5-1.8-0.8-3-0.8
		c-1.2,0-2.1,0.2-2.7,0.7c-0.6,0.5-0.9,1.1-0.9,1.9c0,1.1,1.2,1.9,3.6,2.5c0.7,0.2,1.2,0.3,1.6,0.4c0.7,0.2,1.4,0.4,2,0.6
		c0.6,0.1,1,0.3,1.3,0.3c0.6,0.2,1.2,0.5,1.7,0.7c0.8,0.5,1.5,1.1,1.9,1.9c0.5,0.9,0.7,1.8,0.7,2.9c0,2.2-0.7,4-2.2,5.2
		c-1.5,1.2-3.6,1.7-6.3,1.7c-2.8,0-4.9-0.6-6.3-1.8C51,31.9,50.1,30.2,50,27.8z"/>
	
		<linearGradient id="SVGID_00000164508679485826665530000014420839309810387849_" gradientUnits="userSpaceOnUse" x1="81.6852" y1="46.3027" x2="81.6852" y2="-4.0601">
		<stop  offset="0" style="stop-color:#879AF2"/>
		<stop  offset="0.4865" style="stop-color:#D3208B"/>
		<stop  offset="0.7152" style="stop-color:#E5574F"/>
		<stop  offset="1" style="stop-color:#FDA000"/>
	</linearGradient>
	<path style="fill:url(#SVGID_00000164508679485826665530000014420839309810387849_);" d="M88.6,34.4h-4.3l-2.5-11.8l-2.5,11.8h-4.3
		l-4.5-16.5h4.2l2.6,11.4l2.4-11.4h4.4l2.2,11.4l2.3-9.9c0.2-1,0.9-1.5,2-1.5h2.7L88.6,34.4z"/>
	
		<linearGradient id="SVGID_00000165218530086546052320000000241521833887026580_" gradientUnits="userSpaceOnUse" x1="103.4759" y1="46.1514" x2="103.4759" y2="-4.3157">
		<stop  offset="0" style="stop-color:#879AF2"/>
		<stop  offset="0.4842" style="stop-color:#D3208B"/>
		<stop  offset="1" style="stop-color:#FDA000"/>
	</linearGradient>
	<path style="fill:url(#SVGID_00000165218530086546052320000000241521833887026580_);" d="M107.7,29.3h3.1c-0.5,1.7-1.3,3.1-2.6,4
		c-1.3,1-2.9,1.4-4.8,1.4c-2.4,0-4.2-0.8-5.5-2.3c-1.3-1.5-2-3.6-2-6.4c0-2.6,0.6-4.7,1.9-6.2c1.3-1.5,3.2-2.3,5.5-2.3
		c2.5,0,4.4,0.7,5.8,2.2c1.3,1.5,2,3.7,2,6.4c0,0.2,0,0.3,0,0.4s0,0.2,0,0.2c0,0.2,0,0.4-0.1,0.4h-10.7c0,1.3,0.4,2.2,0.9,2.9
		c0.5,0.7,1.3,1,2.4,1c0.7,0,1.3-0.1,1.8-0.4c0.1,0,0.2-0.1,0.3-0.2c0.1-0.1,0.2-0.2,0.3-0.3c0-0.1,0.2-0.3,0.5-0.5
		C106.8,29.5,107.2,29.3,107.7,29.3z M100.3,24.5h6.3c-0.1-1.1-0.4-1.9-0.9-2.5c-0.5-0.6-1.3-0.9-2.3-0.9c-0.9,0-1.7,0.3-2.2,0.9
		C100.6,22.6,100.3,23.4,100.3,24.5z"/>
	
		<linearGradient id="SVGID_00000007403988536977366640000002903566381221748654_" gradientUnits="userSpaceOnUse" x1="121.0171" y1="46.1316" x2="121.0171" y2="-4.2729">
		<stop  offset="0" style="stop-color:#879AF2"/>
		<stop  offset="0.486" style="stop-color:#D3208B"/>
		<stop  offset="1" style="stop-color:#FDA000"/>
	</linearGradient>
	<path style="fill:url(#SVGID_00000007403988536977366640000002903566381221748654_);" d="M125.3,29.3h3.1c-0.5,1.7-1.3,3.1-2.6,4
		c-1.3,1-2.9,1.4-4.8,1.4c-2.4,0-4.2-0.8-5.5-2.3c-1.3-1.5-2-3.6-2-6.4c0-2.6,0.6-4.7,1.9-6.2c1.3-1.5,3.2-2.3,5.5-2.3
		c2.5,0,4.4,0.7,5.8,2.2c1.3,1.5,2,3.7,2,6.4c0,0.2,0,0.3,0,0.4s0,0.2,0,0.2c0,0.2,0,0.4-0.1,0.4h-10.7c0,1.3,0.4,2.2,0.9,2.9
		c0.5,0.7,1.3,1,2.4,1c0.7,0,1.3-0.1,1.8-0.4c0.1,0,0.2-0.1,0.3-0.2c0.1-0.1,0.2-0.2,0.3-0.3c0-0.1,0.2-0.3,0.5-0.5
		C124.4,29.5,124.8,29.3,125.3,29.3z M117.8,24.5h6.3c-0.1-1.1-0.4-1.9-0.9-2.5c-0.5-0.6-1.3-0.9-2.3-0.9c-0.9,0-1.7,0.3-2.2,0.9
		C118.2,22.6,117.9,23.4,117.8,24.5z"/>
	
		<linearGradient id="SVGID_00000073686599764302815980000009747348528886804147_" gradientUnits="userSpaceOnUse" x1="135.2396" y1="46.4099" x2="135.2396" y2="-4.2151">
		<stop  offset="0" style="stop-color:#879AF2"/>
		<stop  offset="0.4889" style="stop-color:#D3208B"/>
		<stop  offset="1" style="stop-color:#FDA000"/>
	</linearGradient>
	<path style="fill:url(#SVGID_00000073686599764302815980000009747348528886804147_);" d="M138.7,34.4c-1.4,0.1-2.8,0.1-4.4-0.1
		c-1.6-0.1-2.4-1.1-2.4-3V13.1h2.2c0.5,0,1,0.2,1.4,0.6c0.4,0.4,0.6,0.9,0.6,1.5V18h2.5v0.9c0,0.6-0.2,1.1-0.6,1.5
		c-0.4,0.4-0.9,0.6-1.5,0.6h-0.4v9.2c0,0.7,0.4,1.1,1.2,1.1h1.3V34.4z"/>
	
		<linearGradient id="SVGID_00000049913039189350896400000015461721927733402768_" gradientUnits="userSpaceOnUse" x1="143.4138" y1="46.3361" x2="143.4138" y2="-4.1858">
		<stop  offset="0" style="stop-color:#879AF2"/>
		<stop  offset="0.4935" style="stop-color:#D3208B"/>
		<stop  offset="1" style="stop-color:#FDA000"/>
	</linearGradient>
	<path style="fill:url(#SVGID_00000049913039189350896400000015461721927733402768_);" d="M141.2,13.1h2.2c0.6,0,1.1,0.2,1.5,0.6
		c0.4,0.4,0.6,0.9,0.6,1.5v19.3h-4.3V13.1z"/>
	
		<linearGradient id="SVGID_00000140701502999297873280000014741540302762477193_" gradientUnits="userSpaceOnUse" x1="156.3646" y1="46.3335" x2="156.3646" y2="-3.9858">
		<stop  offset="0" style="stop-color:#879AF2"/>
		<stop  offset="0.4877" style="stop-color:#D3208B"/>
		<stop  offset="1" style="stop-color:#FDA000"/>
	</linearGradient>
	<path style="fill:url(#SVGID_00000140701502999297873280000014741540302762477193_);" d="M150.7,40.3v-3.4h1.2c0.8,0,1.5-0.2,2-0.6
		c0.5-0.4,0.6-1,0.3-1.9l-5.8-16.4h4.8l3.3,11.7l2.9-10.2c0.2-1,0.9-1.5,2-1.5h3L158,36.7c-0.5,1.4-1.1,2.3-1.9,2.9
		c-0.7,0.5-2,0.7-3.7,0.7c-0.1,0-0.3,0-0.4,0c-0.2,0-0.3,0-0.4,0c-0.1,0-0.3-0.1-0.5-0.1C151,40.3,150.8,40.3,150.7,40.3z"/>
</g>
</svg>
